<svg viewBox="0 0 512 512" xmlns="http://www.w3.org/2000/svg" width="512" height="512">
  <rect width="512" height="512" fill="#7C3AED" rx="120"/>
  <g transform="translate(256, 256)">
    <!-- Microphone icon -->
    <path d="M 0,-90 C -33.1,-90 -60,-62.9 -60,-30 L -60,40 C -60,72.9 -33.1,100 0,100 C 33.1,100 60,72.9 60,40 L 60,-30 C 60,-62.9 33.1,-90 0,-90 Z" fill="white"/>
    <!-- Sound waves -->
    <path d="M -110,-50 Q -130,-30 -130,-10" stroke="white" stroke-width="12" fill="none" stroke-linecap="round"/>
    <path d="M -110,20 Q -130,10 -130,30" stroke="white" stroke-width="12" fill="none" stroke-linecap="round"/>
    <path d="M 110,-50 Q 130,-30 130,-10" stroke="white" stroke-width="12" fill="none" stroke-linecap="round"/>
    <path d="M 110,20 Q 130,10 130,30" stroke="white" stroke-width="12" fill="none" stroke-linecap="round"/>
  </g>
</svg>
